<svg width="44" height="43" viewBox="0 0 44 43" fill="none" xmlns="http://www.w3.org/2000/svg">
<path d="M22.47 0.00415039C10.602 0.00415039 0.969971 9.63615 0.969971 21.5042C0.969971 33.3722 10.602 43.0042 22.47 43.0042C34.338 43.0042 43.97 33.3722 43.97 21.5042C43.97 9.63615 34.338 0.00415039 22.47 0.00415039ZM32.446 14.6242C32.1235 18.0212 30.726 26.2772 30.0165 30.0827C29.7155 31.6952 29.1135 32.2327 28.5545 32.2972C27.3075 32.4047 26.3615 31.4802 25.1575 30.6847C23.2655 29.4377 22.1905 28.6637 20.363 27.4597C18.2345 26.0622 19.6105 25.2882 20.836 24.0412C21.1585 23.7187 26.6625 18.7092 26.77 18.2577C26.7849 18.1893 26.7829 18.1183 26.7642 18.0508C26.7454 17.9834 26.7105 17.9215 26.6625 17.8707C26.5335 17.7632 26.3615 17.8062 26.211 17.8277C26.0175 17.8707 23.0075 19.8702 17.138 23.8262C16.278 24.4067 15.504 24.7077 14.816 24.6862C14.042 24.6647 12.58 24.2562 11.4835 23.8907C10.129 23.4607 9.07547 23.2242 9.16147 22.4717C9.20447 22.0847 9.74197 21.6977 10.7525 21.2892C17.0305 18.5587 21.2015 16.7527 23.287 15.8927C29.264 13.3987 30.4895 12.9687 31.3065 12.9687C31.4785 12.9687 31.887 13.0117 32.145 13.2267C32.36 13.3987 32.4245 13.6352 32.446 13.8072C32.4245 13.9362 32.4675 14.3232 32.446 14.6242Z" fill="#2697BE"/>
</svg>
